<svg width="20" height="20" viewBox="0 0 20 20" fill="none" xmlns="http://www.w3.org/2000/svg">
<mask id="mask0_1259_50" style="mask-type:alpha" maskUnits="userSpaceOnUse" x="0" y="0" width="20" height="20">
<rect width="20" height="20" fill="#D9D9D9"/>
</mask>
<g mask="url(#mask0_1259_50)">
<rect width="20" height="20" fill="#193133"/>
<path d="M14.7708 6.68838C15.621 6.68838 16.597 7.03707 17.2518 7.66471L18.3952 6.49263C17.391 5.50284 16.0803 5 14.7708 5C11.822 5 10.1424 6.86456 9.72095 9.12675L9.71973 9.13776C10.4636 8.91264 11.1428 8.75849 11.7341 8.65082C12.2337 7.48119 13.2964 6.68838 14.7708 6.68838Z" fill="#CCF664"/>
<path d="M14.719 9.3959H14.5761H14.4771V9.48766V9.63081V11.0439H16.9715V12.7751C16.2044 13.3905 15.535 13.5239 14.7691 13.5569C12.1428 13.6719 10.9933 11.0207 10.4766 10.3527C10.6244 10.9901 12.4555 14.8685 12.4555 14.8685C13.1029 15.1266 13.8688 15.2734 14.7691 15.2734C16.4829 15.2734 17.6959 14.6177 18.6573 13.5153V9.3959H14.719Z" fill="#CCF664"/>
<path d="M9.95625 10.8249L9.93793 10.7845C9.35892 11.0378 8.79945 11.3314 8.25586 11.6654L9.83776 15.2649C10.5389 15.2649 11.2413 15.2649 11.9449 15.2649L11.1375 13.4627L9.95625 10.8249Z" fill="#CCF664"/>
<path d="M3.8853 12.6503L6.29785 7.16186L7.49741 9.96605C8.09963 9.69933 8.68231 9.47544 9.23445 9.29314L7.76859 5.94207L7.35083 5.00734H5.24366L1 15.2502L3.37347 15.2649C6.75715 11.0207 10.4609 9.4681 14.0693 9.04355C14.0779 9.04233 8.95838 8.92855 3.8853 12.6503Z" fill="#CCF664"/>
</g>
</svg>
