<svg width="139" height="41" viewBox="0 0 139 41" fill="none" xmlns="http://www.w3.org/2000/svg">
<path d="M18.0316 27.8698C18.0316 30.1629 16.1582 32.0389 13.8692 32.0389H12.8802C12.4499 32.0389 12.1004 31.6872 12.1004 31.2561V30.6295C10.578 31.7261 9.01607 32.389 6.67195 32.389C3.27462 32.389 0 30.7871 0 25.6641V25.3132C0 20.7369 2.88652 18.7048 9.60015 18.7048H11.711V17.2969C11.711 15.0667 10.6164 14.5967 8.78228 14.5967C6.90626 14.5967 4.87619 14.6356 3.47242 14.7925L2.30191 14.8711H2.10566C1.67537 14.8711 1.40326 14.6763 1.40326 14.1666V10.999C1.40326 10.5697 1.63834 10.2567 2.14269 10.1395C3.58841 9.78749 6.28308 9.31934 8.89827 9.31934C14.518 9.31934 18.0311 11.5844 18.0311 17.2967V27.8698H18.0316ZM11.828 22.4586H9.60015C6.90652 22.4586 6.16631 23.3967 6.16631 25.3132V25.6641C6.16631 27.3435 6.94846 27.6179 8.62434 27.6179C8.63496 27.6179 8.64842 27.6179 8.65981 27.6179C10.4437 27.6063 11.8283 26.0252 11.8283 24.2366V22.4586H11.828Z" fill="#C4161C"/>
<path d="M41.3309 30.2386C41.3309 30.8645 41.1753 31.0982 40.1234 31.3723C37.8971 31.9611 34.8128 32.3888 31.8048 32.3888C25.4423 32.3888 22.0092 28.753 22.0092 22.3793V19.3304C22.0092 13.1902 25.2075 9.3191 31.8048 9.3191C32.587 9.3191 33.8771 9.43556 35.0103 9.5917V2.82481C35.0103 2.39711 35.3598 2.04541 35.7909 2.04541H40.5115C40.9418 2.04541 41.3309 2.39711 41.3309 2.82481V30.2386ZM35.0106 14.7534C34.07 14.6353 32.7454 14.5594 31.8051 14.5594C29.0356 14.5594 28.3342 16.5907 28.3342 19.3304V22.379C28.3342 25.1947 29.0356 27.1898 31.8051 27.1898C33.0975 27.1898 34.2662 27.0725 35.0106 26.9545V14.7534Z" fill="#C4161C"/>
<path d="M75.4412 10.4523L68.5132 19.8914C68.3128 20.1638 68.3045 20.5321 68.4925 20.813L75.4031 31.218C75.4409 31.2558 75.4831 31.3723 75.4831 31.53C75.4831 31.8817 75.3239 32.0386 74.9728 32.0386H69.0786C68.6476 32.0386 68.4151 31.9611 68.1051 31.4888L63.9689 24.7325C63.5469 24.0397 62.481 24.3419 62.481 25.1527V30.4134C62.481 31.3069 61.7516 32.0386 60.8589 32.0386H57.7837C56.8876 32.0386 56.1567 31.3036 56.1567 30.4085V3.62988C56.1567 2.75867 56.8687 2.04541 57.7394 2.04541H60.8978C61.769 2.04541 62.4812 2.75893 62.4812 3.63326V16.5049C62.4812 17.3016 63.514 17.6147 63.9549 16.9492L68.4151 10.216C68.7276 9.74706 69.1206 9.6306 69.4297 9.6306H75.0101C75.4034 9.6306 75.5994 9.78752 75.5994 10.0617C75.5996 10.1781 75.5592 10.334 75.4412 10.4523Z" fill="black"/>
<path d="M109.633 29.6581C109.633 30.9669 108.562 32.0389 107.256 32.0389H105.645C104.36 32.0389 103.307 30.9853 103.307 29.6955V18.1954C103.307 15.4599 102.797 14.5596 100.416 14.5596C99.5438 14.5596 98.6493 14.861 97.6621 15.3374C97.1122 15.6033 96.7479 16.1516 96.7479 16.7619V29.6581C96.7479 30.9669 95.6789 32.0389 94.3733 32.0389H92.8023C91.4943 32.0389 90.4227 30.9653 90.4227 29.6532V11.9727C90.4227 10.6846 91.4754 9.63084 92.7619 9.63084H95.5793C96.0077 9.63084 96.3591 9.98254 96.3591 10.4136V11.3507C98.508 9.82484 100.224 9.31934 102.722 9.31934C108.341 9.31934 109.633 13.2682 109.633 18.1951V29.6581H109.633Z" fill="black"/>
<path d="M132.576 14.1276C133.043 14.8707 133.437 16.0822 133.437 17.0208V17.3339C133.437 22.4584 129.924 24.6465 123.794 24.6465C121.961 24.6465 120.515 24.3723 119.733 24.0611C119.304 24.3352 119.186 24.6078 119.186 24.9611C119.186 25.5869 119.421 25.8577 120.361 26.0559L124.773 27.0319C131.56 28.5173 133.905 29.5752 133.905 33.3298V33.6411C133.905 37.9027 130.508 40.015 123.678 40.015C117.156 40.015 113.764 37.7458 113.764 33.6411V33.3298C113.764 32.2687 114.053 31.2588 114.734 30.3224C115.221 29.6543 115.319 28.4802 114.857 27.7939C114.344 27.0319 114.115 26.1168 114.115 25.3125C114.115 24.4844 114.357 23.7716 114.745 23.1688C115.21 22.4488 115.319 21.5561 114.901 20.8089C114.307 19.7462 114.036 18.4333 114.036 17.3333V17.0203C114.036 12.6009 116.964 9.62988 123.794 9.62988C129.747 9.63066 132.576 14.1276 132.576 14.1276ZM127.463 33.3301C127.463 32.587 126.956 31.9982 123.443 31.2964L122.522 31.0967C121.146 30.7986 119.794 31.8068 119.777 33.2165C119.777 33.2536 119.775 33.2906 119.775 33.3303V33.6416C119.775 35.0097 120.67 35.6358 123.678 35.6358C126.914 35.6358 127.463 34.816 127.463 33.6416V33.3301ZM127.27 17.0211C127.27 15.4184 126.565 14.2069 123.794 14.2069C121.025 14.2069 120.242 15.4182 120.242 17.0211V17.3341C120.242 18.7049 120.829 20.073 123.794 20.073C126.565 20.073 127.27 19.0161 127.27 17.3341V17.0211Z" fill="black"/>
<path d="M87.8696 5.45397C87.8696 8.46548 85.4315 10.9079 82.4254 10.9079C79.4169 10.9079 76.9812 8.46548 76.9812 5.45397C76.9809 2.4409 79.4167 0 82.4254 0C85.4315 0 87.8696 2.4409 87.8696 5.45397Z" fill="#C4161C"/>
<path d="M82.4254 13.1157C81.2269 13.1157 80.1372 12.687 79.2652 11.9976L79.2634 11.9994V30.5008C79.2634 31.3463 79.9549 32.0368 80.7981 32.0368H84.0549C84.8956 32.0368 85.5848 31.3482 85.5848 30.5042V11.9994V11.9976C84.711 12.6872 83.623 13.1157 82.4254 13.1157Z" fill="black"/>
<path d="M134.823 8.74253H134.189V8.44971H135.768V8.74253H135.136V10.4754H134.823V8.74253Z" fill="black"/>
<path d="M137.689 8.9252L137.033 9.88408H136.967L136.319 8.9252V10.4814H136.008V8.45264H136.369L137.006 9.4027L137.64 8.45264H138V10.4814H137.689V8.9252Z" fill="black"/>
<path d="M138.791 9.32055C138.791 10.7385 137.64 11.8919 136.224 11.8919C134.809 11.8919 133.657 10.7385 133.657 9.32055C133.657 7.90284 134.809 6.74892 136.224 6.74892C137.64 6.74866 138.791 7.90259 138.791 9.32055ZM136.224 6.53857C134.692 6.53857 133.449 7.78717 133.449 9.32055C133.449 10.8524 134.692 12.1007 136.224 12.1007C137.754 12.1007 139 10.8521 139 9.32055C139 7.78717 137.754 6.53857 136.224 6.53857Z" fill="black"/>
<path d="M56.157 38.3287H57.2141C57.2542 38.6257 57.3578 38.8347 57.5253 38.9574C57.6933 39.0798 57.9419 39.1408 58.2717 39.1408C58.9027 39.1408 59.218 38.904 59.218 38.4301C59.218 38.2167 59.1556 38.0535 59.0303 37.9417C58.9055 37.8297 58.7067 37.7529 58.4335 37.7117L57.8795 37.6258C56.8162 37.4642 56.2849 36.9644 56.2849 36.1262C56.2849 35.6264 56.4653 35.2303 56.826 34.9385C57.1869 34.647 57.6661 34.501 58.2629 34.501C58.8429 34.501 59.3019 34.6416 59.64 34.9227C59.9781 35.2039 60.17 35.5999 60.2158 36.1103H59.1411C59.1245 35.8497 59.0417 35.6601 58.8941 35.54C58.7463 35.4204 58.5304 35.3603 58.2458 35.3603C57.9561 35.3603 57.7371 35.4217 57.5892 35.5436C57.4414 35.6661 57.3676 35.8344 57.3676 36.0478C57.3676 36.2351 57.4331 36.3835 57.5639 36.4929C57.6949 36.6021 57.8994 36.6802 58.1777 36.7274L58.8004 36.8288C59.8122 36.9951 60.3178 37.5003 60.3178 38.3438C60.3178 38.8856 60.1291 39.2998 59.7508 39.5861C59.3731 39.8725 58.8628 40.0156 58.2204 40.0156C57.5895 40.0156 57.0978 39.8712 56.7457 39.582C56.3926 39.2933 56.1966 38.8752 56.157 38.3287Z" fill="black"/>
<path d="M63.3506 34.5791V35.3525H62.2764V34.5791H63.3506ZM63.3423 35.9073V39.969H62.2935V35.9073H63.3423Z" fill="black"/>
<path d="M66.5131 35.9071V36.2741C66.6441 36.1387 66.8018 36.0357 66.9864 35.9657C67.171 35.8951 67.3631 35.8599 67.5617 35.8599C68.0168 35.8599 68.3689 35.9901 68.6193 36.2507C68.8694 36.5109 68.9945 36.8678 68.9945 37.3206V39.9688H67.9373V37.4379C67.9373 37.2086 67.8744 37.0319 67.7496 36.9069C67.6249 36.7817 67.4568 36.7191 67.2466 36.7191C67.0421 36.7191 66.873 36.7817 66.7394 36.9069C66.6058 37.0317 66.539 37.2086 66.539 37.4379V39.9688H65.4814V35.9071H66.5131Z" fill="black"/>
<path d="M71.0129 38.3127V37.5551C71.0129 36.977 71.1731 36.55 71.4947 36.2741C71.8157 35.9981 72.2548 35.8599 72.812 35.8599C73.3578 35.8599 73.7842 35.9875 74.0912 36.2424C74.398 36.4979 74.5516 36.8519 74.5516 37.3051V37.3826H73.5455V37.3359C73.5455 37.1435 73.4815 36.9923 73.3536 36.8828C73.2257 36.7736 73.051 36.7189 72.8293 36.7189C72.3175 36.7189 72.062 37.0029 72.062 37.5704V38.3047C72.062 38.6115 72.1285 38.8304 72.2623 38.9603C72.3959 39.0908 72.5849 39.1556 72.8293 39.1556C73.051 39.1556 73.2257 39.1038 73.3536 38.9992C73.4815 38.8952 73.5455 38.7495 73.5455 38.5617V38.515H74.5516V38.5697C74.5516 39.0177 74.398 39.3704 74.0912 39.6282C73.7844 39.886 73.3578 40.0147 72.812 40.0147C72.2548 40.0147 71.8157 39.8769 71.4947 39.6005C71.1731 39.3255 71.0129 38.896 71.0129 38.3127Z" fill="black"/>
<path d="M77.5422 38.336C77.5422 38.6382 77.6159 38.854 77.7638 38.9847C77.9116 39.1149 78.1216 39.1795 78.3947 39.1795C78.6049 39.1795 78.7699 39.1396 78.889 39.0584C79.0086 38.9777 79.0736 38.8644 79.0852 38.7186L79.094 38.6953H80.1001V38.7344C80.1001 39.1198 79.9435 39.4298 79.631 39.6643C79.3182 39.8982 78.8923 40.0154 78.3523 40.0154C77.7837 40.0154 77.3317 39.8658 76.9966 39.5665C76.6611 39.2667 76.4936 38.805 76.4936 38.1796V37.6879C76.4936 37.0784 76.6554 36.6214 76.9796 36.3169C77.3037 36.0124 77.7495 35.8599 78.3181 35.8599C78.8752 35.8599 79.3175 36.0137 79.6442 36.3208C79.9709 36.6281 80.1343 37.0838 80.1343 37.6879V38.2268H77.5427V38.336H77.5422ZM77.5422 37.5393V37.5626H79.0769V37.4612C79.0769 36.9461 78.824 36.6883 78.3178 36.6883C78.0677 36.6883 77.8761 36.7531 77.7425 36.8831C77.6087 37.0138 77.5422 37.2324 77.5422 37.5393Z" fill="black"/>
<path d="M86.3294 36.2192V37.3286H85.1443V36.2192H86.3294ZM86.3294 38.8593V39.9687H85.1443V38.8593H86.3294Z" fill="black"/>
<path d="M91.2635 36.368V35.2586L92.2526 34.5791H93.37V39.9688H92.2526V35.7118L91.2635 36.368Z" fill="black"/>
<path d="M97.0006 37.8676C96.5403 37.8676 96.1719 37.7332 95.8967 37.4653C95.6209 37.1971 95.4832 36.8309 95.4832 36.3676V36.1174C95.4832 35.6069 95.6491 35.2085 95.9816 34.9222C96.3145 34.6358 96.7536 34.4927 97.2994 34.4927C97.8674 34.4927 98.3127 34.6333 98.6338 34.9144C98.9548 35.1956 99.1156 35.5864 99.1156 36.0862V36.3282C99.1156 36.5365 99.0827 36.738 99.0177 36.9333C98.9522 37.1286 98.857 37.3408 98.7317 37.5701L97.3848 39.9682H96.2081L97.4276 37.789C97.3017 37.8414 97.1598 37.8676 97.0006 37.8676ZM97.9894 36.3207V36.0629C97.9894 35.8442 97.9285 35.6725 97.8063 35.5478C97.6841 35.4225 97.5151 35.36 97.2991 35.36C97.0832 35.36 96.9126 35.4225 96.7873 35.5478C96.6625 35.6725 96.6001 35.8471 96.6001 36.0709V36.3129C96.6001 36.537 96.6625 36.71 96.7873 36.8324C96.9126 36.9548 97.0832 37.0158 97.2991 37.0158C97.5151 37.0158 97.6841 36.9548 97.8063 36.8324C97.9285 36.71 97.9894 36.5393 97.9894 36.3207Z" fill="black"/>
<path d="M102.575 37.8676C102.114 37.8676 101.746 37.7332 101.471 37.4653C101.195 37.1971 101.057 36.8309 101.057 36.3676V36.1174C101.057 35.6069 101.223 35.2085 101.556 34.9222C101.889 34.6358 102.328 34.4927 102.874 34.4927C103.442 34.4927 103.887 34.6333 104.208 34.9144C104.529 35.1956 104.69 35.5864 104.69 36.0862V36.3282C104.69 36.5365 104.657 36.738 104.591 36.9333C104.526 37.1286 104.431 37.3408 104.306 37.5701L102.959 39.9682H101.782L103.002 37.789C102.876 37.8414 102.734 37.8676 102.575 37.8676ZM103.564 36.3207V36.0629C103.564 35.8442 103.503 35.6725 103.381 35.5478C103.258 35.4225 103.089 35.36 102.873 35.36C102.657 35.36 102.487 35.4225 102.361 35.5478C102.237 35.6725 102.174 35.8471 102.174 36.0709V36.3129C102.174 36.537 102.237 36.71 102.361 36.8324C102.487 36.9548 102.657 37.0158 102.873 37.0158C103.089 37.0158 103.258 36.9548 103.381 36.8324C103.503 36.71 103.564 36.5393 103.564 36.3207Z" fill="black"/>
<path d="M109.633 35.4698L107.842 39.969H106.716L108.541 35.4698H106.248V34.5791H109.633V35.4698H109.633Z" fill="black"/>
</svg>
