<svg width="112" height="32" viewBox="0 0 112 32" fill="none" xmlns="http://www.w3.org/2000/svg">
<path d="M14.4198 22.2873C14.4198 24.121 12.9217 25.6213 11.0912 25.6213H10.3003C9.95616 25.6213 9.67665 25.34 9.67665 24.9953V24.4942C8.45923 25.3711 7.21012 25.9013 5.33554 25.9013C2.6187 25.9013 0 24.6203 0 20.5234V20.2428C0 16.5831 2.30834 14.958 7.67722 14.958H9.36525V13.8322C9.36525 12.0486 8.48987 11.6728 7.02316 11.6728C5.52292 11.6728 3.89948 11.7039 2.77688 11.8294L1.84083 11.8922H1.68389C1.33979 11.8922 1.12218 11.7365 1.12218 11.3289V8.79574C1.12218 8.45246 1.31018 8.20211 1.7135 8.10836C2.86964 7.8269 5.02456 7.45251 7.11592 7.45251C11.61 7.45251 14.4194 9.26387 14.4194 13.832V22.2873H14.4198ZM9.45884 17.96H7.67722C5.52312 17.96 4.93118 18.7102 4.93118 20.2428V20.5234C4.93118 21.8664 5.55667 22.0859 6.89687 22.0859C6.90535 22.0859 6.91612 22.0859 6.92523 22.0859C8.35177 22.0765 9.45904 20.8121 9.45904 19.3818V17.96H9.45884Z" fill="#C4161C"/>
<path d="M33.0522 24.1818C33.0522 24.6823 32.9278 24.8691 32.0866 25.0884C30.3062 25.5592 27.8397 25.9012 25.4342 25.9012C20.3461 25.9012 17.6007 22.9937 17.6007 17.8967V15.4585C17.6007 10.5482 20.1583 7.45249 25.4342 7.45249C26.0597 7.45249 27.0914 7.54562 27.9977 7.67049V2.25902C27.9977 1.917 28.2772 1.63574 28.6219 1.63574H32.3969C32.741 1.63574 33.0522 1.917 33.0522 2.25902V24.1818ZM27.9979 11.7983C27.2457 11.7039 26.1864 11.6431 25.4344 11.6431C23.2197 11.6431 22.6588 13.2676 22.6588 15.4585V17.8965C22.6588 20.1482 23.2197 21.7436 25.4344 21.7436C26.468 21.7436 27.4026 21.6499 27.9979 21.5555V11.7983Z" fill="#C4161C"/>
<path d="M60.3301 8.35869L54.7898 15.9071C54.6296 16.1249 54.6229 16.4195 54.7732 16.6441L60.2997 24.965C60.3299 24.9953 60.3637 25.0884 60.3637 25.2145C60.3637 25.4957 60.2363 25.6212 59.9556 25.6212H55.242C54.8973 25.6212 54.7113 25.5592 54.4635 25.1815L51.1558 19.7786C50.8183 19.2245 49.9659 19.4662 49.9659 20.1146V24.3216C49.9659 25.0361 49.3826 25.6212 48.6687 25.6212H46.2095C45.4929 25.6212 44.9084 25.0334 44.9084 24.3176V2.90284C44.9084 2.20613 45.4778 1.63574 46.1741 1.63574H48.6998C49.3965 1.63574 49.9661 2.20634 49.9661 2.90554V13.1989C49.9661 13.8361 50.792 14.0865 51.1446 13.5542L54.7113 8.16973C54.9612 7.79473 55.2755 7.7016 55.5227 7.7016H59.9854C60.2999 7.7016 60.4566 7.82708 60.4566 8.04632C60.4568 8.13945 60.4245 8.26411 60.3301 8.35869Z" fill="black"/>
<path d="M87.6729 23.7174C87.6729 24.764 86.8168 25.6213 85.7726 25.6213H84.484C83.4564 25.6213 82.6146 24.7787 82.6146 23.7473V14.5507C82.6146 12.3631 82.2065 11.6431 80.3023 11.6431C79.605 11.6431 78.8896 11.8841 78.1002 12.2652C77.6604 12.4778 77.3691 12.9162 77.3691 13.4043V23.7174C77.3691 24.764 76.5142 25.6213 75.4701 25.6213H74.2137C73.1677 25.6213 72.3108 24.7628 72.3108 23.7134V9.57437C72.3108 8.54435 73.1526 7.70162 74.1814 7.70162H76.4345C76.7772 7.70162 77.0581 7.98288 77.0581 8.3276V9.07699C78.7766 7.85677 80.1489 7.45251 82.1462 7.45251C86.6397 7.45251 87.6733 10.6104 87.6733 14.5505V23.7174H87.6729Z" fill="black"/>
<path d="M106.021 11.2975C106.394 11.8917 106.709 12.8606 106.709 13.6112V13.8615C106.709 17.9596 103.9 19.7094 98.998 19.7094C97.5315 19.7094 96.3754 19.4902 95.7503 19.2413C95.4068 19.4605 95.3126 19.6785 95.3126 19.961C95.3126 20.4615 95.5004 20.678 96.2526 20.8365L99.7804 21.617C105.209 22.8049 107.083 23.6509 107.083 26.6535V26.9024C107.083 30.3104 104.367 31.9996 98.9053 31.9996C93.6892 31.9996 90.9769 30.1849 90.9769 26.9024V26.6535C90.9769 25.8049 91.2075 24.9972 91.7527 24.2485C92.1421 23.7142 92.2206 22.7752 91.8508 22.2264C91.4403 21.617 91.2576 20.8852 91.2576 20.242C91.2576 19.5798 91.4506 19.0098 91.7612 18.5278C92.1328 17.952 92.2206 17.238 91.8858 16.6405C91.4107 15.7907 91.1943 14.7408 91.1943 13.8611V13.6108C91.1943 10.0766 93.5362 7.70068 98.998 7.70068C103.758 7.70131 106.021 11.2975 106.021 11.2975ZM101.932 26.6537C101.932 26.0594 101.526 25.5886 98.7171 25.0273L97.9808 24.8676C96.8799 24.6293 95.799 25.4355 95.7853 26.5628C95.7853 26.5925 95.7839 26.6221 95.7839 26.6539V26.9028C95.7839 27.9969 96.4996 28.4976 98.9051 28.4976C101.493 28.4976 101.932 27.8419 101.932 26.9028V26.6537ZM101.778 13.6114C101.778 12.3298 101.213 11.3609 98.9978 11.3609C96.7831 11.3609 96.1576 12.3296 96.1576 13.6114V13.8617C96.1576 14.9579 96.6263 16.052 98.9978 16.052C101.213 16.052 101.778 15.2068 101.778 13.8617V13.6114Z" fill="black"/>
<path d="M70.2691 4.36153C70.2691 6.76982 68.3194 8.72305 65.9154 8.72305C63.5095 8.72305 61.5616 6.76982 61.5616 4.36153C61.5614 1.95198 63.5093 0 65.9154 0C68.3194 0 70.2691 1.95198 70.2691 4.36153Z" fill="#C4161C"/>
<path d="M65.9154 10.4885C64.9569 10.4885 64.0855 10.1457 63.3882 9.59436L63.3867 9.59581V24.3914C63.3867 25.0675 63.9397 25.6197 64.6141 25.6197H67.2185C67.8908 25.6197 68.4419 25.069 68.4419 24.3941V9.59581V9.59436C67.7431 10.1459 66.8731 10.4885 65.9154 10.4885Z" fill="black"/>
<path d="M107.818 6.99125H107.31V6.75708H108.573V6.99125H108.068V8.37699H107.818V6.99125Z" fill="black"/>
<path d="M110.11 7.13743L109.585 7.90425H109.532L109.014 7.13743V8.38192H108.765V6.75952H109.054L109.563 7.51928L110.07 6.75952H110.358V8.38192H110.11V7.13743Z" fill="black"/>
<path d="M110.99 7.45337C110.99 8.58731 110.07 9.50969 108.938 9.50969C107.806 9.50969 106.885 8.58731 106.885 7.45337C106.885 6.31964 107.806 5.39685 108.938 5.39685C110.07 5.39664 110.99 6.31943 110.99 7.45337ZM108.938 5.22864C107.713 5.22864 106.718 6.22713 106.718 7.45337C106.718 8.67837 107.713 9.67666 108.938 9.67666C110.162 9.67666 111.158 8.67816 111.158 7.45337C111.158 6.22713 110.162 5.22864 108.938 5.22864Z" fill="black"/>
<path d="M44.9086 30.651H45.7539C45.786 30.8885 45.8689 31.0557 46.0028 31.1538C46.1372 31.2517 46.3359 31.3004 46.5997 31.3004C47.1043 31.3004 47.3565 31.111 47.3565 30.7321C47.3565 30.5614 47.3066 30.4309 47.2064 30.3415C47.1066 30.2519 46.9476 30.1905 46.7291 30.1576L46.2861 30.0889C45.4357 29.9597 45.0109 29.56 45.0109 28.8896C45.0109 28.4899 45.1552 28.1732 45.4436 27.9399C45.7322 27.7067 46.1155 27.59 46.5927 27.59C47.0565 27.59 47.4236 27.7024 47.694 27.9272C47.9644 28.1521 48.1178 28.4688 48.1544 28.877H47.295C47.2817 28.6685 47.2155 28.5169 47.0975 28.4209C46.9792 28.3253 46.8066 28.2771 46.579 28.2771C46.3473 28.2771 46.1722 28.3263 46.054 28.4238C45.9357 28.5217 45.8767 28.6563 45.8767 28.827C45.8767 28.9767 45.9291 29.0954 46.0337 29.1829C46.1384 29.2702 46.302 29.3327 46.5246 29.3704L47.0225 29.4515C47.8316 29.5845 48.236 29.9885 48.236 30.663C48.236 31.0963 48.0851 31.4276 47.7826 31.6565C47.4805 31.8855 47.0724 32 46.5587 32C46.0542 32 45.661 31.8845 45.3794 31.6532C45.097 31.4224 44.9403 31.088 44.9086 30.651Z" fill="black"/>
<path d="M50.6613 27.6525V28.271H49.8023V27.6525H50.6613ZM50.6547 28.7146V31.9628H49.816V28.7146H50.6547Z" fill="black"/>
<path d="M53.1904 28.7144V29.0079C53.2952 28.8996 53.4212 28.8173 53.5689 28.7613C53.7165 28.7048 53.8701 28.6766 54.0289 28.6766C54.3929 28.6766 54.6745 28.7808 54.8747 28.9892C55.0747 29.1972 55.1747 29.4827 55.1747 29.8448V31.9625H54.3293V29.9386C54.3293 29.7552 54.279 29.6139 54.1792 29.514C54.0794 29.4138 53.9451 29.3638 53.777 29.3638C53.6134 29.3638 53.4782 29.4138 53.3714 29.514C53.2645 29.6137 53.2111 29.7552 53.2111 29.9386V31.9625H52.3653V28.7144H53.1904Z" fill="black"/>
<path d="M56.7888 30.6382V30.0323C56.7888 29.57 56.917 29.2286 57.1741 29.0079C57.4309 28.7872 57.782 28.6766 58.2276 28.6766C58.664 28.6766 59.005 28.7787 59.2506 28.9826C59.4959 29.1869 59.6187 29.47 59.6187 29.8324V29.8944H58.8141V29.857C58.8141 29.7031 58.763 29.5822 58.6607 29.4947C58.5584 29.4074 58.4187 29.3636 58.2414 29.3636C57.8321 29.3636 57.6278 29.5907 57.6278 30.0445V30.6317C57.6278 30.8771 57.681 31.0522 57.788 31.1561C57.8949 31.2604 58.046 31.3123 58.2414 31.3123C58.4187 31.3123 58.5584 31.2708 58.6607 31.1872C58.763 31.104 58.8141 30.9874 58.8141 30.8373V30.7999H59.6187V30.8437C59.6187 31.2019 59.4959 31.484 59.2506 31.6902C59.0052 31.8963 58.664 31.9992 58.2276 31.9992C57.782 31.9992 57.4309 31.8891 57.1741 31.668C56.917 31.4481 56.7888 31.1046 56.7888 30.6382Z" fill="black"/>
<path d="M62.0103 30.6568C62.0103 30.8985 62.0693 31.071 62.1875 31.1756C62.3057 31.2797 62.4736 31.3313 62.6921 31.3313C62.8602 31.3313 62.9921 31.2994 63.0873 31.2345C63.183 31.17 63.2349 31.0793 63.2443 30.9628L63.2513 30.9441H64.0559V30.9754C64.0559 31.2836 63.9306 31.5315 63.6807 31.719C63.4306 31.9061 63.09 31.9998 62.6581 31.9998C62.2034 31.9998 61.8419 31.8802 61.574 31.6408C61.3057 31.401 61.1717 31.0318 61.1717 30.5318V30.1385C61.1717 29.6511 61.3011 29.2856 61.5604 29.0421C61.8196 28.7986 62.1761 28.6766 62.6308 28.6766C63.0763 28.6766 63.43 28.7996 63.6913 29.0452C63.9526 29.291 64.0832 29.6554 64.0832 30.1385V30.5695H62.0107V30.6568H62.0103ZM62.0103 30.0196V30.0383H63.2376V29.9572C63.2376 29.5453 63.0353 29.3391 62.6306 29.3391C62.4306 29.3391 62.2774 29.391 62.1705 29.4949C62.0635 29.5994 62.0103 29.7743 62.0103 30.0196Z" fill="black"/>
<path d="M69.0374 28.9645V29.8516H68.0897V28.9645H69.0374ZM69.0374 31.0758V31.9629H68.0897V31.0758H69.0374Z" fill="black"/>
<path d="M72.9832 29.0834V28.1963L73.7741 27.6528H74.6677V31.9629H73.7741V28.5586L72.9832 29.0834Z" fill="black"/>
<path d="M77.5711 30.2824C77.203 30.2824 76.9084 30.1749 76.6883 29.9607C76.4678 29.7462 76.3577 29.4533 76.3577 29.0829V28.8827C76.3577 28.4746 76.4904 28.156 76.7562 27.927C77.0225 27.698 77.3736 27.5835 77.8101 27.5835C78.2643 27.5835 78.6204 27.6959 78.8772 27.9208C79.1339 28.1456 79.2625 28.4582 79.2625 28.8579V29.0514C79.2625 29.2179 79.2362 29.3791 79.1842 29.5353C79.1318 29.6915 79.0557 29.8611 78.9554 30.0445L77.8784 31.9622H76.9374L77.9126 30.2195C77.8119 30.2614 77.6985 30.2824 77.5711 30.2824ZM78.3618 29.0454V28.8392C78.3618 28.6643 78.3132 28.527 78.2155 28.4273C78.1177 28.3271 77.9825 28.2771 77.8099 28.2771C77.6372 28.2771 77.5008 28.3271 77.4005 28.4273C77.3007 28.527 77.2508 28.6666 77.2508 28.8456V29.0391C77.2508 29.2183 77.3007 29.3567 77.4005 29.4546C77.5008 29.5525 77.6372 29.6012 77.8099 29.6012C77.9825 29.6012 78.1177 29.5525 78.2155 29.4546C78.3132 29.3567 78.3618 29.2202 78.3618 29.0454Z" fill="black"/>
<path d="M82.0288 30.2824C81.6607 30.2824 81.3661 30.1749 81.146 29.9607C80.9255 29.7462 80.8153 29.4533 80.8153 29.0829V28.8827C80.8153 28.4746 80.948 28.156 81.2139 27.927C81.4801 27.698 81.8313 27.5835 82.2677 27.5835C82.722 27.5835 83.0781 27.6959 83.3348 27.9208C83.5916 28.1456 83.7202 28.4582 83.7202 28.8579V29.0514C83.7202 29.2179 83.6939 29.3791 83.6415 29.5353C83.5895 29.6915 83.5133 29.8611 83.4131 30.0445L82.3361 31.9622H81.395L82.3702 30.2195C82.2696 30.2614 82.1559 30.2824 82.0288 30.2824ZM82.8195 29.0454V28.8392C82.8195 28.6643 82.7709 28.527 82.6731 28.4273C82.5754 28.3271 82.4402 28.2771 82.2675 28.2771C82.0949 28.2771 81.9584 28.3271 81.8582 28.4273C81.7584 28.527 81.7085 28.6666 81.7085 28.8456V29.0391C81.7085 29.2183 81.7584 29.3567 81.8582 29.4546C81.9584 29.5525 82.0949 29.6012 82.2675 29.6012C82.4402 29.6012 82.5754 29.5525 82.6731 29.4546C82.7709 29.3567 82.8195 29.2202 82.8195 29.0454Z" fill="black"/>
<path d="M87.6728 28.3647L86.2409 31.9628H85.3407L86.8001 28.3647H84.9659V27.6525H87.6731V28.3647H87.6728Z" fill="black"/>
</svg>
