<svg width="14" height="14" viewBox="0 0 14 14" xmlns="http://www.w3.org/2000/svg">
                                <g>
                                    <path d="M9.07059 7.78198L7.89814 8.9584C7.42269 9.43552 6.58613 9.4458 6.1004 8.9584L4.9279 7.78198L0.716797 12.0068C0.873548 12.0792 1.04638 12.1225 1.23011 12.1225H12.7684C12.9522 12.1225 13.1249 12.0793 13.2816 12.0068L9.07059 7.78198Z"></path>
                                    <path d="M12.7687 2.27942H1.23039C1.04665 2.27942 0.873822 2.32267 0.717125 2.39516L5.21698 6.90995C5.21729 6.91025 5.21764 6.9103 5.21794 6.9106C5.21813 6.9108 5.21825 6.91105 5.2183 6.91131L6.68145 8.3793C6.83686 8.53471 7.16228 8.53471 7.3177 8.3793L8.78055 6.91156C8.78055 6.91156 8.7809 6.9109 8.7812 6.9106C8.7812 6.9106 8.78186 6.91025 8.78216 6.90995L13.2819 2.39513C13.1252 2.32262 12.9524 2.27942 12.7687 2.27942ZM0.130859 2.96876C0.0497624 3.13276 0 3.3148 0 3.50981V10.8921C0 11.0871 0.0497077 11.2692 0.130831 11.4332L4.34923 7.20111L0.130859 2.96876ZM13.8682 2.96871L9.64988 7.20111L13.8682 11.4332C13.9493 11.2692 13.9991 11.0872 13.9991 10.8921V3.50981C13.9991 3.31475 13.9493 3.13271 13.8682 2.96871Z"></path>
                                </g>
                            </svg>