<svg width="14" height="14" viewBox="0 0 14 14" xmlns="http://www.w3.org/2000/svg">
                                <g>
                                    <path d="M12.8766 9.18937C12.0195 9.18937 11.1779 9.05531 10.3804 8.79176C9.98956 8.65846 9.50915 8.78075 9.27064 9.02571L7.69648 10.214C5.87091 9.23954 4.74639 8.11538 3.7852 6.30352L4.93856 4.77038C5.23821 4.47113 5.34569 4.03399 5.21692 3.62384C4.95223 2.82212 4.81777 1.98092 4.81777 1.12342C4.81781 0.503962 4.31385 0 3.69442 0H1.12339C0.503962 0 0 0.503962 0 1.12339C0 8.22363 5.77637 14 12.8766 14C13.496 14 14 13.496 14 12.8766V10.3127C14 9.69333 13.496 9.18937 12.8766 9.18937Z"></path>
                                </g>
                            </svg>